<?xml version="1.0" standalone="no"?>
<!DOCTYPE svg PUBLIC "-//W3C//DTD SVG 20010904//EN"
 "http://www.w3.org/TR/2001/REC-SVG-20010904/DTD/svg10.dtd">
<svg version="1.0" xmlns="http://www.w3.org/2000/svg"
 width="256.000000pt" height="256.000000pt" viewBox="0 0 256.000000 256.000000"
 preserveAspectRatio="xMidYMid meet">
<metadata>
Created by potrace 1.11, written by Peter Selinger 2001-2013
</metadata>
<g transform="translate(0.000000,256.000000) scale(0.100000,-0.100000)"
fill="#000000" stroke="none">
<path d="M398 2122 l-218 -218 0 -822 c0 -809 0 -822 20 -842 20 -20 33 -20
1080 -20 1047 0 1060 0 1080 20 20 20 20 33 20 842 l0 822 -218 218 -218 218
-664 0 -664 0 -218 -218z m822 -42 l0 -140 -417 0 -418 0 140 140 140 140 277
0 278 0 0 -140z m815 0 l140 -140 -418 0 -417 0 0 140 0 140 278 0 277 0 140
-140z m225 -1000 l0 -740 -980 0 -980 0 0 740 0 740 980 0 980 0 0 -740z"/>
<path d="M771 1228 c-63 -172 -118 -320 -122 -328 -4 -8 -26 -64 -48 -125 -22
-60 -44 -122 -50 -137 l-11 -28 54 0 54 0 17 48 c47 130 69 188 76 197 10 14
325 14 337 0 5 -6 28 -63 52 -127 l43 -118 57 0 57 0 -104 278 c-58 152 -108
288 -113 302 -4 14 -23 63 -40 110 -18 47 -45 119 -60 160 -25 68 -30 75 -56
78 l-29 2 -114 -312z m160 67 c6 -27 33 -111 60 -186 27 -74 49 -138 49 -142
0 -4 -58 -7 -130 -7 -71 0 -130 2 -130 5 0 3 22 66 50 141 27 74 55 164 62
200 13 71 20 68 39 -11z"/>
<path d="M1505 1533 c-16 -2 -45 -6 -62 -9 l-33 -5 0 -449 c0 -323 3 -451 11
-456 19 -11 281 -14 329 -3 156 35 243 138 235 277 -6 109 -51 161 -180 207
-17 7 -16 9 13 17 46 12 115 84 130 134 37 124 -16 232 -132 270 -48 16 -226
26 -311 17z m242 -104 c44 -14 93 -62 94 -92 0 -12 2 -31 4 -41 10 -51 -59
-133 -130 -156 -20 -6 -70 -13 -111 -14 -60 -2 -76 0 -82 13 -6 12 -8 227 -3
288 2 22 164 24 228 2z m21 -417 c65 -25 103 -75 104 -139 0 -122 -74 -175
-244 -176 -54 0 -101 2 -104 6 -4 3 -7 78 -8 166 -1 185 -14 168 123 163 46
-2 104 -11 129 -20z"/>
</g>
</svg>
